#!OML:ASF H:\BabyWalks\Project 1\Capture day 1\Session 1\baby.ASF
:FULLY-SPECIFIED
:DEGREES
1063
root 45.6667 17.4973 1.00142 -354.227 102.087 -359.423
lowerback 22.7551 -0.231334 2.41247
upperback 5.86621 0.871436 1.57513
thorax -6.25576 0.6104 0.0650556
lowerneck -1.92191 3.07071 8.84097
upperneck -0.851272 4.04212 -13.061
head 0.528555 2.00616 -5.32679
rclavicle -3.57812e-015 -3.97569e-015
rhumerus -39.4007 9.35383 -79.7702
rradius 48.7249
rwrist -6.50354
rhand -23.8707 -18.8146
rfingers 7.12502
rthumb 2.60224 -48.7785
lclavicle -3.57812e-015 -3.97569e-015
lhumerus -41.8865 -16.1241 82.9147
lradius 48.6629
lwrist -4.75508
lhand 9.20096 9.93591
lfingers 7.12502
lthumb 34.3681 36.6372
rfemur -23.85 8.80973 19.136
rtibia 33.8403
rfoot -12.9124 3.03973
rtoes 5.58319
lfemur -23.6389 -9.28155 -11.1636
ltibia 28.8103
lfoot -15.4018 -7.04508
ltoes -0.554271
1064
root 45.7163 17.5019 0.982825 -353.188 101.361 -358.374
lowerback 22.626 -0.135277 2.40901
upperback 5.90268 0.972055 1.43069
thorax -6.14546 0.657818 -0.115279
lowerneck -1.74037 3.42199 9.06449
upperneck -0.743673 4.52721 -13.0707
head 0.58941 2.24912 -5.35711
rclavicle -1.27222e-014 3.65764e-014
rhumerus -39.1632 9.86851 -80.1771
rradius 49.8278
rwrist -7.57416
rhand -22.359 -18.4757
rfingers 7.12502
rthumb 4.06208 -48.4167
lclavicle -1.27222e-014 3.65764e-014
lhumerus -42.5465 -16.1234 82.9956
lradius 48.022
lwrist -4.86402
lhand 10.2538 10.7069
lfingers 7.12502
lthumb 35.3671 37.1764
rfemur -23.639 9.37817 19.3476
rtibia 33.5788
rfoot -12.8551 3.18483
rtoes 5.57493
lfemur -23.1334 -9.41296 -10.939
ltibia 28.6105
lfoot -15.4492 -6.31242
ltoes -0.965406
1065
root 45.7625 17.5052 0.964178 -351.927 100.642 -357.056
lowerback 22.5634 -0.050805 2.42149
upperback 5.94329 1.06637 1.29238
thorax -6.06425 0.702786 -0.296408
lowerneck -1.53863 3.76139 9.27664
upperneck -0.696426 4.99415 -13.0815
head 0.628212 2.48508 -5.38668
rclavicle 4.13472e-014 2.70347e-014
rhumerus -38.953 10.4141 -80.61
rradius 50.9375
rwrist -8.44985
rhand -20.9637 -18.3121
rfingers 7.12502
rthumb 5.40941 -48.2231
lclavicle 4.13472e-014 2.70347e-014
lhumerus -43.1925 -16.1042 83.0803
lradius 47.4369
lwrist -4.94246
lhand 11.1968 11.4308
lfingers 7.12502
lthumb 36.2606 37.6828
rfemur -23.3901 9.92234 19.5923
rtibia 33.3215
rfoot -12.7812 3.35839
rtoes 5.56509
lfemur -22.6172 -9.44348 -10.705
ltibia 28.5352
lfoot -15.6933 -5.53966
ltoes -1.4505
1066
root 45.8058 17.5074 0.94548 -350.403 99.9366 -355.429
lowerback 22.5688 0.0239981 2.45311
upperback 5.98812 1.15742 1.16027
thorax -6.01267 0.74669 -0.481391
lowerneck -1.33616 4.08666 9.46751
upperneck -0.68651 5.44034 -13.078
head 0.653677 2.71154 -5.40884
rclavicle -1.43125e-014 2.50469e-014
rhumerus -38.7779 10.9724 -81.0647
rradius 52.0372
rwrist -9.12145
rhand -19.7467 -18.2499
rfingers 7.12502
rthumb 6.58438 -48.1275
lclavicle -1.43125e-014 2.50469e-014
lhumerus -43.8161 -16.0759 83.17
lradius 46.8959
lwrist -4.99338
lhand 12.0163 12.0831
lfingers 7.12502
lthumb 37.0361 38.1382
rfemur -23.0961 10.4383 19.8683
rtibia 33.0668
rfoot -12.6943 3.56331
rtoes 5.58565
lfemur -22.0926 -9.36077 -10.4655
ltibia 28.544
lfoot -16.0438 -4.82825
ltoes -1.9692
1067
root 45.8464 17.509 0.927182 -348.724 99.2645 -353.61
lowerback 22.6311 0.0872552 2.47938
upperback 6.0392 1.2363 1.02982
thorax -5.98338 0.785427 -0.658979
lowerneck -1.14859 4.4018 9.65584
upperneck -0.692791 5.87182 -13.0828
head 0.676245 2.93064 -5.43306
rclavicle -1.98785e-015 1.07344e-014
rhumerus -38.6376 11.5488 -81.5412
rradius 53.1115
rwrist -9.60967
rhand -18.7319 -18.2397
rfingers 7.12502
rthumb 7.56392 -48.0844
lclavicle -1.98785e-015 1.07344e-014
lhumerus -44.4019 -16.0416 83.261
lradius 46.3839
lwrist -5.02872
lhand 12.7235 12.6526
lfingers 7.12502
lthumb 37.7047 38.5316
rfemur -22.7621 10.9056 20.1478
rtibia 32.8158
rfoot -12.6065 3.79845
rtoes 5.62959
lfemur -21.574 -9.17782 -10.2464
ltibia 28.604
lfoot -16.407 -4.24637
ltoes -2.53617
1068
root 45.8848 17.5098 0.90979 -346.927 98.6374 -351.65
lowerback 22.7315 0.141669 2.49335
upperback 6.09405 1.3037 0.900662
thorax -5.96957 0.819182 -0.825784
lowerneck -0.99027 4.70348 9.83478
upperneck -0.697408 6.28427 -13.0864
head 0.702399 3.13944 -5.4548
rclavicle 1.76918e-014 1.98785e-014
rhumerus -38.5348 12.1285 -82.0308
rradius 54.1508
rwrist -9.92755
rhand -17.9105 -18.253
rfingers 7.12502
rthumb 8.35669 -48.0677
lclavicle 1.76918e-014 1.98785e-014
lhumerus -44.9366 -16.0153 83.3527
lradius 45.888
lwrist -5.06419
lhand 13.3298 13.1259
lfingers 7.12502
lthumb 38.2773 38.8491
rfemur -22.4042 11.3119 20.4193
rtibia 32.5715
rfoot -12.5268 4.06113
rtoes 5.68188
lfemur -21.0851 -8.89965 -10.0547
ltibia 28.6947
lfoot -16.7061 -3.90978
ltoes -2.89098
1069
root 45.9215 17.5103 0.893776 -345.109 98.0625 -349.664
lowerback 22.8449 0.188752 2.48143
upperback 6.15334 1.35699 0.770344
thorax -5.95808 0.846767 -0.975655
lowerneck -0.879125 4.99637 10.0021
upperneck -0.679169 6.6841 -13.088
head 0.741784 3.34028 -5.47237
rclavicle -1.96797e-014 -9.54166e-015
rhumerus -38.4671 12.705 -82.5282
rradius 55.1321
rwrist -10.0889
rhand -17.2925 -18.2317
rfingers 7.12502
rthumb 8.95313 -48.0217
lclavicle -1.96797e-014 -9.54166e-015
lhumerus -45.4078 -15.9998 83.4389
lradius 45.3999
lwrist -5.11154
lhand 13.8273 13.49
lfingers 7.12502
lthumb 38.7467 39.0821
rfemur -22.0402 11.6591 20.663
rtibia 32.3412
rfoot -12.4695 4.33822
rtoes 5.75794
lfemur -20.6369 -8.54185 -9.90343
ltibia 28.8041
lfoot -16.9428 -3.78256
ltoes -3.10738
1070
root 45.9564 17.5103 0.879823 -343.31 97.5467 -347.714
lowerback 22.9472 0.231563 2.44119
upperback 6.21541 1.39833 0.640217
thorax -5.93866 0.869145 -1.10586
lowerneck -0.812966 5.27546 10.1558
upperneck -0.642662 7.064 -13.0864
head 0.791595 3.52968 -5.48519
rclavicle 3.77691e-015 -2.56432e-014
rhumerus -38.4297 13.2741 -83.0261
rradius 56.0442
rwrist -10.1186
rhand -16.8722 -18.1517
rfingers 7.12502
rthumb 9.35865 -47.9239
lclavicle 3.77691e-015 -2.56432e-014
lhumerus -45.7984 -16.0153 83.5186
lradius 44.9066
lwrist -5.17278
lhand 14.2381 13.7514
lfingers 7.12502
lthumb 39.134 39.2329
rfemur -21.6992 11.9539 20.8722
rtibia 32.1309
rfoot -12.4389 4.61384
rtoes 5.87356
lfemur -20.2489 -8.12476 -9.78626
ltibia 28.9309
lfoot -17.1438 -3.75327
ltoes -3.32355
1071
root 45.9899 17.5096 0.868312 -341.568 97.0948 -345.854
lowerback 23.0196 0.271519 2.37617
upperback 6.27537 1.42929 0.511714
thorax -5.90705 0.886754 -1.21686
lowerneck -0.784969 5.53872 10.2998
upperneck -0.594533 7.4211 -13.0884
head 0.848721 3.70656 -5.49633
rclavicle -1.64991e-014 2.72335e-014
rhumerus -38.426 13.8249 -83.5191
rradius 56.8799
rwrist -10.0317
rhand -16.6168 -18.0229
rfingers 7.12502
rthumb 9.6051 -47.784
lclavicle -1.64991e-014 2.72335e-014
lhumerus -46.1045 -16.061 83.5853
lradius 44.4131
lwrist -5.25597
lhand 14.5789 13.9203
lfingers 7.12502
lthumb 39.4551 39.3085
rfemur -21.4031 12.2025 21.0443
rtibia 31.944
rfoot -12.4367 4.873
rtoes 6.00724
lfemur -19.9347 -7.66772 -9.69624
ltibia 29.0767
lfoot -17.3341 -3.80658
ltoes -3.50398
1072
root 46.0217 17.5084 0.859587 -339.917 96.7138 -344.133
lowerback 23.0435 0.307069 2.29031
upperback 6.32978 1.44801 0.38788
thorax -5.85778 0.898461 -1.30662
lowerneck -0.777395 5.78383 10.4183
upperneck -0.553031 7.75194 -13.0819
head 0.903281 3.86999 -5.50045
rclavicle -1.10325e-014 1.2921e-015
rhumerus -38.4515 14.357 -84.0008
rradius 57.6335
rwrist -9.84217
rhand -16.5019 -17.8452
rfingers 7.12502
rthumb 9.71592 -47.6011
lclavicle -1.10325e-014 1.2921e-015
lhumerus -46.3236 -16.1367 83.6344
lradius 43.9224
lwrist -5.35934
lhand 14.8511 14.0093
lfingers 7.12502
lthumb 39.7114 39.3217
rfemur -21.1721 12.4143 21.1813
rtibia 31.7825
rfoot -12.4614 5.09332
rtoes 6.13795
lfemur -19.7113 -7.18209 -9.6251
ltibia 29.2414
lfoot -17.5265 -3.95917
ltoes -3.61788
1073
root 46.0522 17.507 0.853462 -338.319 96.407 -342.518
lowerback 23.0128 0.335651 2.20173
upperback 6.37869 1.45556 0.27239
thorax -5.78734 0.904657 -1.38155
lowerneck -0.777775 6.00903 10.5119
upperneck -0.532095 8.0542 -13.075
head 0.949052 4.01943 -5.50091
rclavicle -5.11871e-015 8.74653e-015
rhumerus -38.5037 14.8688 -84.4691
rradius 58.3032
rwrist -9.56679
rhand -16.4977 -17.6413
rfingers 7.12502
rthumb 9.71995 -47.397
lclavicle -5.11871e-015 8.74653e-015
lhumerus -46.4536 -16.2278 83.6554
lradius 43.4454
lwrist -5.48913
lhand 15.0808 14.0392
lfingers 7.12502
lthumb 39.9277 39.287
rfemur -21.0096 12.5971 21.2958
rtibia 31.645
rfoot -12.5043 5.26844
rtoes 6.29318
lfemur -19.5798 -6.68417 -9.55809
ltibia 29.421
lfoot -17.7181 -4.1768
ltoes -3.68851
1074
root 46.0813 17.5056 0.849411 -336.811 96.1737 -341.04
lowerback 22.9316 0.355069 2.11984
upperback 6.42092 1.45159 0.166047
thorax -5.69902 0.905027 -1.4461
lowerneck -0.767135 6.21099 10.5785
upperneck -0.552695 8.32343 -13.0706
head 0.97618 4.15351 -5.49975
rclavicle 1.73937e-015 -3.926e-015
rhumerus -38.5807 15.3625 -84.9216
rradius 58.8918
rwrist -9.23733
rhand -16.5873 -17.4285
rfingers 7.12502
rthumb 9.63354 -47.1882
lclavicle 1.73937e-015 -3.926e-015
lhumerus -46.4965 -16.3228 83.6414
lradius 42.9941
lwrist -5.63996
lhand 15.2777 14.0357
lfingers 7.12502
lthumb 40.113 39.2275
rfemur -20.9102 12.7528 21.3919
rtibia 31.5235
rfoot -12.5561 5.39309
rtoes 6.4395
lfemur -19.5378 -6.19474 -9.49044
ltibia 29.6115
lfoot -17.9004 -4.43273
ltoes -3.75235
